<?xml version="1.0" standalone="no"?>
<!DOCTYPE svg PUBLIC "-//W3C//DTD SVG 20010904//EN"
 "http://www.w3.org/TR/2001/REC-SVG-20010904/DTD/svg10.dtd">
<svg version="1.0" xmlns="http://www.w3.org/2000/svg"
 width="400.000000pt" height="400.000000pt" viewBox="0 0 400.000000 400.000000"
 preserveAspectRatio="xMidYMid meet">
<metadata>
Created by potrace 1.14, written by Peter Selinger 2001-2017
</metadata>
<g transform="translate(0.000000,400.000000) scale(0.100000,-0.100000)"
fill="#000000" stroke="none">
<path d="M0 2000 l0 -2000 473 0 472 0 1 60 c1 77 45 168 115 239 142 144 306
146 447 5 81 -81 117 -155 117 -241 l0 -63 182 0 182 0 48 48 c72 72 131 97
228 97 97 0 156 -25 228 -97 48 -48 48 -48 115 -48 l67 0 0 63 c0 82 39 162
116 240 76 76 133 101 224 101 57 0 80 -5 124 -28 118 -61 216 -205 216 -318
l0 -58 322 0 323 0 0 2000 0 2000 -2000 0 -2000 0 0 -2000z m2290 1560 c129
-12 288 -47 381 -85 54 -21 65 -23 78 -11 36 32 102 56 150 56 71 0 110 -36
150 -138 67 -174 114 -562 69 -562 -6 0 -44 32 -85 71 -124 117 -279 209 -451
269 -52 17 -107 44 -124 58 -35 32 -177 112 -198 112 -8 -1 23 -20 69 -45 47
-24 94 -54 105 -66 l21 -22 -25 7 c-141 36 -433 46 -622 21 -107 -14 -278 -51
-343 -74 -30 -11 -30 -11 8 23 20 18 65 48 98 66 33 17 58 34 55 37 -8 8 -139
-72 -191 -117 -26 -22 -52 -40 -58 -40 -7 0 -56 -20 -109 -44 -95 -43 -191
-103 -215 -135 -46 -64 -45 -67 -39 94 8 225 37 346 95 399 30 27 110 33 166
11 65 -24 165 -100 165 -125 0 -14 7 -20 23 -20 29 0 178 91 209 129 44 52
239 115 403 130 50 5 92 9 95 10 3 0 57 -4 120 -9z m-1049 -680 c80 -15 172
-63 232 -118 l52 -50 80 14 c44 8 154 17 245 20 160 6 166 7 212 36 197 124
444 95 608 -71 36 -36 74 -85 84 -108 16 -36 31 -49 95 -84 42 -23 124 -75
184 -115 102 -70 110 -74 163 -74 40 0 55 -4 52 -12 -3 -7 -19 -14 -36 -16
-37 -4 -36 -2 -17 -38 19 -36 19 -84 0 -204 -18 -120 -44 -201 -101 -315 -49
-97 -78 -139 -131 -196 l-34 -36 51 -78 c28 -43 53 -88 56 -101 10 -40 179
-93 252 -79 71 13 117 68 110 131 -2 22 -12 33 -40 47 -34 17 -45 17 -113 6
-66 -11 -79 -11 -109 4 -48 23 -69 67 -64 134 17 198 289 256 445 94 22 -23
53 -68 69 -99 26 -52 29 -67 29 -157 0 -87 -3 -107 -26 -155 -36 -77 -80 -124
-147 -157 -50 -25 -68 -28 -147 -27 -67 1 -104 6 -145 22 -30 12 -55 22 -56
22 -1 0 -4 -39 -8 -87 -16 -215 -142 -437 -329 -581 -122 -95 -326 -178 -495
-202 -122 -18 -347 -8 -442 20 -377 109 -611 485 -534 858 11 52 12 78 5 80
-6 2 -52 24 -103 49 -290 141 -408 319 -425 642 -5 105 -8 118 -35 158 -22 32
-88 190 -88 209 0 1 -11 5 -25 8 -33 8 -34 43 -1 56 20 7 26 18 31 57 18 148
69 257 165 354 118 119 272 169 431 139z"/>
<path d="M2364 3511 c-36 -16 -37 -30 -4 -61 30 -28 118 -62 191 -74 47 -8 89
8 89 33 0 56 -207 132 -276 102z"/>
<path d="M1910 3477 c-46 -16 -52 -45 -11 -53 45 -9 29 -30 -53 -68 -39 -18
-78 -40 -85 -50 -9 -11 11 -4 50 18 81 45 138 54 199 31 25 -9 54 -19 65 -21
20 -5 20 -5 1 10 -11 9 -46 21 -78 28 -67 14 -75 36 -20 54 43 14 57 28 40 41
-22 18 -72 23 -108 10z"/>
<path d="M2332 3360 c47 -16 110 -41 138 -55 29 -15 54 -24 57 -21 13 12 -226
107 -266 105 -9 0 23 -13 71 -29z"/>
<path d="M2260 3358 c3 -3 37 -19 77 -36 39 -17 97 -47 128 -67 59 -38 88 -43
37 -7 -60 43 -268 137 -242 110z"/>
<path d="M1545 3316 c-80 -31 -182 -83 -191 -97 -8 -14 -9 -14 81 32 39 20
100 46 138 58 37 13 67 25 67 27 0 10 -39 1 -95 -20z"/>
<path d="M1514 3262 c-90 -47 -169 -100 -161 -108 2 -2 35 17 73 42 38 26 97
60 132 76 56 25 75 39 55 38 -5 0 -49 -22 -99 -48z"/>
<path d="M1040 2835 c-166 -47 -312 -212 -342 -386 -6 -36 -8 -76 -5 -91 7
-26 9 -27 93 -30 83 -3 87 -2 99 22 22 42 146 153 225 202 89 55 185 98 294
129 l79 23 -39 34 c-21 18 -72 50 -111 69 -61 30 -86 36 -155 39 -55 3 -102
-1 -138 -11z"/>
<path d="M2212 2805 c-29 -8 -69 -23 -90 -34 l-37 -19 50 -7 c189 -25 388 -76
514 -131 30 -14 56 -22 59 -20 8 8 -36 63 -89 110 -110 99 -267 138 -407 101z"/>
<path d="M1138 2555 c-23 -15 -47 -46 -65 -82 -24 -50 -28 -70 -28 -143 0 -99
24 -159 80 -209 123 -108 278 32 263 238 -13 171 -140 271 -250 196z"/>
<path d="M2324 2515 c-111 -66 -140 -285 -53 -404 81 -112 210 -89 272 49 30
66 29 188 -1 255 -28 61 -57 93 -99 111 -46 20 -72 17 -119 -11z"/>
<path d="M705 2260 c-9 -42 40 -180 64 -180 5 0 12 17 16 38 3 20 19 67 35
105 l28 67 -68 0 c-68 0 -68 0 -75 -30z"/>
<path d="M1516 2017 c-32 -42 -32 -58 0 -96 48 -57 135 -47 169 20 36 69 3
109 -92 109 -47 0 -54 -3 -77 -33z"/>
<path d="M1885 1688 c-170 -17 -312 -32 -314 -34 -2 -2 7 -25 20 -51 27 -54
84 -102 147 -122 l43 -14 42 41 c85 83 196 118 348 109 l97 -5 11 26 c6 15 13
39 17 55 6 27 6 27 -47 26 -30 -1 -193 -15 -364 -31z"/>
<path d="M2165 834 c-60 -52 -109 -101 -109 -108 2 -20 67 -116 79 -116 18 0
97 54 152 104 32 29 58 63 68 90 15 40 15 46 1 74 -16 32 -44 52 -68 51 -7 0
-62 -43 -123 -95z"/>
</g>
</svg>
