<svg width="50" height="50" viewBox="0 0 50 50" fill="none" xmlns="http://www.w3.org/2000/svg">
<path d="M33.3333 25C33.3333 22.6997 32.5195 20.7357 30.8919 19.1081C29.2643 17.4805 27.3003 16.6667 25 16.6667C22.6997 16.6667 20.7357 17.4805 19.1081 19.1081C17.4805 20.7357 16.6667 22.6997 16.6667 25C16.6667 27.3003 17.4805 29.2643 19.1081 30.8919C20.7357 32.5195 22.6997 33.3333 25 33.3333C27.3003 33.3333 29.2643 32.5195 30.8919 30.8919C32.5195 29.2643 33.3333 27.3003 33.3333 25ZM50 21.4518V28.6784C50 28.9388 49.9132 29.1884 49.7396 29.4271C49.566 29.6658 49.349 29.8069 49.0885 29.8503L43.0664 30.7617C42.6541 31.9336 42.2309 32.921 41.7969 33.724C42.5564 34.809 43.7174 36.3064 45.2799 38.2161C45.497 38.4766 45.6055 38.7478 45.6055 39.0299C45.6055 39.3121 45.5078 39.5616 45.3125 39.7786C44.7266 40.5816 43.6523 41.7535 42.0898 43.2943C40.5273 44.8351 39.5074 45.6055 39.0299 45.6055C38.7695 45.6055 38.4874 45.5078 38.1836 45.3125L33.6914 41.7969C32.7365 42.296 31.7491 42.7083 30.7292 43.0339C30.3819 45.9852 30.0673 48.0035 29.7852 49.0885C29.6332 49.6962 29.2426 50 28.6133 50H21.3867C21.0829 50 20.8171 49.9078 20.5892 49.7233C20.3613 49.5388 20.2365 49.3056 20.2148 49.0234L19.3034 43.0339C18.24 42.6866 17.2635 42.2852 16.3737 41.8294L11.7839 45.3125C11.5668 45.5078 11.2956 45.6055 10.9701 45.6055C10.6662 45.6055 10.395 45.4861 10.1562 45.2474C7.42188 42.7734 5.63151 40.9505 4.78516 39.7786C4.63325 39.5616 4.55729 39.3121 4.55729 39.0299C4.55729 38.7695 4.6441 38.52 4.81771 38.2812C5.14323 37.8255 5.69661 37.1039 6.47786 36.1165C7.25911 35.1291 7.84505 34.3641 8.23568 33.8216C7.64974 32.7365 7.20486 31.6623 6.90104 30.599L0.94401 29.7201C0.661892 29.6766 0.434028 29.541 0.260417 29.3132C0.0868056 29.0853 0 28.8303 0 28.5482V21.3216C0 21.0612 0.0868056 20.8116 0.260417 20.5729C0.434028 20.3342 0.640191 20.1931 0.878906 20.1497L6.93359 19.2383C7.23741 18.24 7.66059 17.2418 8.20312 16.2435C7.33507 15.0065 6.17404 13.5091 4.72005 11.7513C4.50304 11.4909 4.39453 11.2305 4.39453 10.9701C4.39453 10.753 4.49219 10.5035 4.6875 10.2214C5.25174 9.4401 6.32053 8.27365 7.89388 6.722C9.46723 5.17036 10.4926 4.39453 10.9701 4.39453C11.2522 4.39453 11.5343 4.50304 11.8164 4.72005L16.3086 8.20312C17.2635 7.70399 18.2509 7.29167 19.2708 6.96615C19.6181 4.01476 19.9327 1.99653 20.2148 0.911458C20.3668 0.303819 20.7574 0 21.3867 0H28.6133C28.9171 0 29.1829 0.0922309 29.4108 0.276693C29.6387 0.461154 29.7635 0.694444 29.7852 0.976562L30.6966 6.96615C31.76 7.31337 32.7365 7.71484 33.6263 8.17057L38.2487 4.6875C38.444 4.49219 38.7044 4.39453 39.0299 4.39453C39.3121 4.39453 39.5833 4.50304 39.8438 4.72005C42.6432 7.30252 44.4336 9.14714 45.2148 10.2539C45.3668 10.4275 45.4427 10.6662 45.4427 10.9701C45.4427 11.2305 45.3559 11.48 45.1823 11.7188C44.8568 12.1745 44.3034 12.896 43.5221 13.8835C42.7409 14.8709 42.1549 15.6359 41.7643 16.1784C42.3286 17.2635 42.7734 18.3268 43.099 19.3685L49.056 20.2799C49.3381 20.3234 49.566 20.459 49.7396 20.6868C49.9132 20.9147 50 21.1697 50 21.4518Z" fill="black"/>
</svg>
